<?xml version="1.0" encoding="UTF-8" standalone="no"?>
<svg
   xmlns:dc="http://purl.org/dc/elements/1.1/"
   xmlns:cc="http://creativecommons.org/ns#"
   xmlns:rdf="http://www.w3.org/1999/02/22-rdf-syntax-ns#"
   xmlns:svg="http://www.w3.org/2000/svg"
   xmlns="http://www.w3.org/2000/svg"
   viewBox="0 0 1107.7733 331.22668"
   height="331.22668"
   width="1107.7733"
   xml:space="preserve"
   id="svg2"
   version="1.1"><metadata
     id="metadata8"><rdf:RDF><cc:Work
         rdf:about=""><dc:format>image/svg+xml</dc:format><dc:type
           rdf:resource="http://purl.org/dc/dcmitype/StillImage" /></cc:Work></rdf:RDF></metadata><defs
     id="defs6" /><g
     transform="matrix(1.3333333,0,0,-1.3333333,0,331.22667)"
     id="g10"><g
       transform="scale(0.1)"
       id="g12"><path
         id="path14"
         style="fill:#ffffff;fill-opacity:1;fill-rule:nonzero;stroke:none"
         d="M 8308.28,0 H 0 V 2484.17 H 8308.28 V 0" /><path
         id="path16"
         style="fill:#231f20;fill-opacity:1;fill-rule:nonzero;stroke:none"
         d="m 373.027,1242.52 868.623,868.62 867.76,-869.49 h -494.73 l -373.9,373.01 -373.01,-373.01 373.88,-373.021 v 373.021 h 373.02 l 0.01,-499.959 -373.03,-368.671 -868.623,869.5" /><path
         id="path18"
         style="fill:#231f20;fill-opacity:1;fill-rule:nonzero;stroke:none"
         d="m 3121.21,1171.95 c -2.84,-22.28 -4.48,-35.73 -10.59,-58.26 -6.01,-21.85 -14.31,-43 -24.77,-63.1 -11.09,-21.14 -24.64,-40.91 -40.37,-58.879 -35.36,-42.629 -80.11,-76.5 -130.75,-98.981 -52.17,-22.378 -108.42,-33.671 -165.19,-33.148 -36.07,-0.203 -71.99,4.629 -106.73,14.348 -33.75,9.84 -66.06,24.062 -96.09,42.312 -29.09,17.34 -55.74,38.477 -79.25,62.848 -23.41,24.19 -43.71,51.2 -60.43,80.41 -16.99,29.58 -29.99,61.28 -38.63,94.27 -9.15,33.8 -13.73,68.66 -13.62,103.67 -0.14,71.31 18.11,141.44 53,203.64 33.45,59.72 82.16,109.49 141.16,144.25 30.37,17.61 62.93,31.17 96.83,40.33 35.35,9.61 71.83,14.44 108.47,14.35 35.72,0.18 71.32,-4.06 105.99,-12.62 32.69,-8.14 64.23,-20.35 93.86,-36.37 29.12,-15.98 56.08,-35.6 80.24,-58.39 24.76,-23.55 46.62,-49.97 65.13,-78.68 l -67.61,-40.09 c -30.29,46.62 -71.09,85.52 -119.12,113.57 -49.26,27.57 -105.01,41.5 -161.46,40.34 -28.52,0.13 -56.89,-3.95 -84.2,-12.13 -26.21,-7.83 -51.21,-19.24 -74.3,-33.9 -23.23,-14.69 -44.52,-32.23 -63.4,-52.2 -19.3,-20.06 -35.95,-42.52 -49.53,-66.81 -13.92,-24.46 -24.73,-50.56 -32.19,-77.69 -7.45,-27.59 -11.2,-56.05 -11.15,-84.63 -0.09,-29.14 3.65,-58.18 11.15,-86.35 7.18,-27.19 17.74,-53.38 31.45,-77.94 13.58,-24.14 30.23,-46.43 49.53,-66.31 19.11,-19.98 40.75,-37.361 64.39,-51.708 24.2,-14.602 50.28,-25.832 77.51,-33.411 28.02,-8 57.04,-12 86.19,-11.871 36.34,-0.039 72.43,6.059 106.73,18.059 32.85,11.512 63.25,29.051 89.65,51.711 26.09,22.63 47.54,50.11 63.15,80.91 16.11,33.13 24.9,57.41 25.76,94.23 h -255.58 v 68.78 h 337.37 c 0,0.87 1.08,-45.64 -2.6,-74.56" /><path
         id="path20"
         style="fill:#231f20;fill-opacity:1;fill-rule:nonzero;stroke:none"
         d="m 3601.07,872.98 v 86.45 h -1.99 c -7.8,-15.629 -18.47,-29.66 -31.44,-41.371 -13.15,-12.348 -27.99,-22.77 -44.07,-30.957 -16.34,-8.403 -33.63,-14.801 -51.5,-19.071 -17.68,-4.23 -35.79,-6.39 -53.97,-6.441 -34.04,-0.5 -67.8,6.25 -99.03,19.808 -29.15,12.762 -55.3,31.493 -76.75,54.993 -21.72,24.199 -38.53,52.379 -49.52,82.979 -12.11,33.25 -18.14,68.4 -17.83,103.78 -0.31,34.32 5.65,68.4 17.58,100.57 11.07,30.11 27.89,57.79 49.52,81.49 21.57,23.31 47.69,41.94 76.75,54.74 31.23,13.59 64.98,20.42 99.03,20.06 18.09,0.08 36.13,-2 53.73,-6.19 17.14,-4.23 33.75,-10.37 49.52,-18.33 16.26,-7.78 31.41,-17.69 45.06,-29.48 13.17,-11.51 24.52,-24.96 33.67,-39.87 h 1.98 v 82.23 h 74.27 V 872.98 Z m 2.97,254.14 c 0.25,25.32 -4.03,50.49 -12.63,74.3 -8.28,22.24 -20.62,42.73 -36.4,60.44 -15.97,17.45 -35.35,31.44 -56.94,41.12 -23.41,10.23 -48.73,15.38 -74.28,15.11 -25.58,0.37 -50.93,-4.87 -74.27,-15.36 -21.35,-10.03 -40.33,-24.46 -55.71,-42.35 -15.65,-18.24 -27.59,-39.36 -35.15,-62.18 -8.09,-24.61 -12.11,-50.38 -11.89,-76.29 -0.04,-25.3 4.23,-50.43 12.63,-74.3 8.31,-22.97 20.63,-44.27 36.39,-62.919 15.96,-18.211 35.41,-33.031 57.2,-43.589 23.19,-11.02 48.59,-16.614 74.27,-16.352 25.07,-0.59 49.93,4.621 72.65,15.242 22.72,10.61 42.68,26.328 58.32,45.938 15.37,19.29 26.97,41.31 34.17,64.9 7.74,24.68 11.67,50.41 11.64,76.29" /><path
         id="path22"
         style="fill:#231f20;fill-opacity:1;fill-rule:nonzero;stroke:none"
         d="m 4326.92,873.699 v 309.671 c 3.11,36.12 -5.57,72.28 -24.77,103.06 -9.67,10.99 -21.78,19.58 -35.37,25.07 -13.59,5.49 -28.27,7.74 -42.88,6.57 -16.6,1.21 -33.24,-1.91 -48.26,-9.06 -15.03,-7.15 -27.92,-18.08 -37.43,-31.72 -20.44,-35.71 -29.99,-76.6 -27.49,-117.64 V 873.699 h -74.29 v 293.611 c 0.2,22.61 -1.63,45.19 -5.45,67.47 -2.94,16.82 -9.08,32.93 -18.08,47.45 -7.93,12.23 -19.3,21.86 -32.69,27.68 -15.66,6.56 -32.55,9.68 -49.53,9.15 -16.43,0.73 -32.76,-2.97 -47.27,-10.71 -14.52,-7.74 -26.67,-19.24 -35.19,-33.29 -21.69,-40.99 -31.55,-87.2 -28.48,-133.45 V 873.699 h -74.29 v 494.291 h 74.29 v -62.53 h 1.98 c 11.78,22.9 29.81,42.01 52.01,55.12 24.11,13.16 51.27,19.73 78.75,19.03 29.5,0.31 58.55,-7.19 84.2,-21.75 27.07,-16.08 48.45,-40.19 61.16,-68.96 12.46,27.79 32.88,51.27 58.7,67.47 27.17,16.04 58.33,24.09 89.89,23.24 22.09,1.67 44.26,-1.69 64.86,-9.82 20.59,-8.13 39.06,-20.84 54.01,-37.14 28.06,-38.83 41.71,-86.18 38.63,-133.95 V 873.699 h -77.01" /><path
         id="path24"
         style="fill:#231f20;fill-opacity:1;fill-rule:nonzero;stroke:none"
         d="m 4538.38,1109.48 c 0.34,-26.72 5.63,-53.14 15.6,-77.94 8.89,-22.22 22.3,-42.349 39.37,-59.142 16.56,-16.339 36.27,-29.136 57.95,-37.609 22.53,-8.98 46.58,-13.519 70.83,-13.359 34.2,-0.801 67.85,8.679 96.58,27.218 28.08,19.223 51.38,44.622 68.11,74.232 l 62.65,-16.58 c -9.93,-22.331 -23.21,-43.019 -39.37,-61.359 -15.66,-17.699 -33.96,-32.89 -54.24,-45.031 -20.63,-12.691 -42.98,-22.359 -66.37,-28.699 -24.26,-6.32 -49.23,-9.469 -74.29,-9.41 -35.52,-0.512 -70.76,6.32 -103.52,20.039 -29.8,12.762 -56.68,31.449 -79,54.93 -21.78,23.851 -38.62,51.769 -49.53,82.15 -11.98,32.64 -17.94,67.18 -17.58,101.94 -0.26,34.46 5.78,68.67 17.83,100.95 11.48,30.19 28.62,57.9 50.52,81.65 22.02,23.62 48.66,42.48 78.25,55.43 31.86,13.85 66.31,20.77 101.05,20.29 35.8,0.66 71.36,-5.99 104.5,-19.55 29.66,-12.35 56.15,-31.21 77.52,-55.18 21.66,-24.79 38.01,-53.76 48.04,-85.11 11.26,-35.67 16.53,-72.96 15.6,-110.35 z m 328.38,115.3 c -8.08,18.68 -19.31,35.84 -33.19,50.73 -13.88,14.59 -30.78,25.99 -49.53,33.4 -22.26,8.56 -45.99,12.68 -69.83,12.12 -22.72,0.26 -45.28,-3.94 -66.37,-12.37 -19.55,-7.8 -37.45,-19.21 -52.75,-33.65 -14.85,-14.32 -27.16,-31.05 -36.41,-49.49 -9.26,-19.81 -15.04,-41.07 -17.09,-62.84 h 344.24 c -3.9,21.37 -10.3,42.22 -19.07,62.1" /><path
         id="path26"
         style="fill:#231f20;fill-opacity:1;fill-rule:nonzero;stroke:none"
         d="m 5819.58,873.191 -115.4,599.769 h -1.98 L 5450.34,852.648 h -18.57 l -247.65,620.312 h -2.23 L 5064.5,873.191 h -78.75 l 158.99,794.739 h 41.36 l 257.8,-645.79 261.02,645.79 h 42.1 l 155.03,-794.739 h -82.47" /><path
         id="path28"
         style="fill:#231f20;fill-opacity:1;fill-rule:nonzero;stroke:none"
         d="m 6352.9,872.941 v 86.457 h -1.98 c -7.81,-15.636 -18.47,-29.668 -31.44,-41.367 -13.16,-12.359 -27.99,-22.781 -44.07,-30.972 -16.34,-8.399 -33.63,-14.797 -51.5,-19.067 -51.13,-11.883 -104.71,-7.203 -153.01,13.379 -29.14,12.75 -55.29,31.481 -76.75,54.988 -21.71,24.2 -38.53,52.383 -49.51,82.981 -12.11,33.25 -18.15,68.41 -17.83,103.8 -0.31,34.31 5.64,68.39 17.58,100.57 11.07,30.12 27.89,57.79 49.51,81.5 21.57,23.31 47.7,41.94 76.76,54.74 31.23,13.59 64.97,20.43 99.03,20.06 18.09,0.08 36.13,-2 53.72,-6.19 17.15,-4.22 33.76,-10.37 49.52,-18.33 15.66,-7.91 30.22,-17.82 43.33,-29.48 13.17,-11.51 24.52,-24.96 33.67,-39.88 h 1.98 v 82.24 h 74.28 V 872.941 Z m 2.97,254.159 c 0.25,25.33 -4.02,50.49 -12.62,74.31 -7.99,21.88 -19.91,42.11 -35.16,59.7 -15.98,17.45 -35.36,31.45 -56.94,41.12 -23.42,10.24 -48.73,15.39 -74.28,15.11 -25.58,0.38 -50.94,-4.87 -74.28,-15.36 -21.36,-9.78 -40.43,-23.96 -55.95,-41.61 -15.83,-18.2 -27.94,-39.32 -35.65,-62.18 -8.09,-24.61 -12.11,-50.38 -11.89,-76.29 -0.03,-25.31 4.24,-50.44 12.63,-74.32 8.31,-22.96 20.63,-44.27 36.4,-62.92 15.95,-18.211 35.4,-33.039 57.19,-43.601 23.19,-11.02 48.59,-16.61 74.27,-16.34 26.14,-0.578 52.03,5.113 75.52,16.59 21.45,10.73 40.37,25.933 55.46,44.589 15.37,19.292 26.96,41.312 34.16,64.902 7.58,24.72 11.33,50.45 11.14,76.3" /><path
         id="path30"
         style="fill:#231f20;fill-opacity:1;fill-rule:nonzero;stroke:none"
         d="m 6800.73,872.961 -209.32,241.309 -21.55,-19.55 V 871.969 h -74.31 v 849.661 h 74.31 V 1165 l 211.3,202.95 h 94.87 l -229.38,-216.56 247.71,-278.429 h -93.63" /><path
         id="path32"
         style="fill:#231f20;fill-opacity:1;fill-rule:nonzero;stroke:none"
         d="m 6952.57,1109.48 c 0.1,-26.74 5.4,-53.22 15.61,-77.94 8.89,-22.22 22.3,-42.349 39.37,-59.142 16.55,-16.339 36.27,-29.136 57.95,-37.609 22.44,-8.98 46.41,-13.508 70.58,-13.359 34.26,-0.692 67.96,8.789 96.83,27.218 27.99,19.25 51.2,44.641 67.86,74.232 l 62.66,-16.58 c -19.46,-44.269 -52.16,-81.441 -93.62,-106.39 -20.3,-12.648 -42.32,-22.308 -65.38,-28.699 -24.25,-6.332 -49.22,-9.492 -74.29,-9.41 -35.44,-0.531 -70.61,6.301 -103.27,20.039 -29.87,12.64 -56.77,31.34 -79,54.93 -22.31,23.679 -39.58,51.621 -50.77,82.15 -12.07,32.62 -18.11,67.16 -17.83,101.94 -0.3,34.48 5.83,68.72 18.08,100.95 11.12,30.29 27.93,58.17 49.53,82.15 21.98,23.67 48.62,42.54 78.25,55.42 31.77,13.86 66.14,20.78 100.8,20.29 35.81,0.69 71.37,-5.97 104.51,-19.54 29.69,-12.41 56.25,-31.26 77.76,-55.18 21.59,-24.81 37.85,-53.78 47.8,-85.12 11.21,-35.68 16.56,-72.95 15.85,-110.35 z m 328.14,115.3 c -7.99,18.73 -19.23,35.9 -33.18,50.73 -13.92,14.56 -30.81,25.96 -49.54,33.4 -22.35,8.54 -46.15,12.66 -70.08,12.12 -22.64,0.23 -45.1,-3.97 -66.12,-12.37 -19.58,-7.74 -37.49,-19.16 -52.75,-33.65 -14.99,-14.2 -27.32,-30.95 -36.41,-49.49 -9.34,-19.8 -15.2,-41.06 -17.33,-62.84 h 344.23 c -3.7,21.39 -10.03,42.25 -18.82,62.1" /><path
         id="path34"
         style="fill:#231f20;fill-opacity:1;fill-rule:nonzero;stroke:none"
         d="m 7632.1,1305.41 c -9.36,1.98 -18.9,2.98 -28.46,2.97 -15.15,0.19 -30.05,-3.95 -42.93,-11.92 -12.89,-7.98 -23.23,-19.46 -29.82,-33.1 -19.62,-44.03 -28.12,-92.2 -24.75,-140.28 V 873.699 H 7431.9 V 1368.5 h 74.24 v -67.54 h 1.98 c 8.76,23.64 24.84,43.87 45.89,57.75 21.04,13.88 45.97,20.69 71.16,19.44 8.34,0.01 16.65,-0.99 24.75,-2.97 8.45,-1.86 16.72,-4.42 24.74,-7.67 l -16.33,-71.99 c -8.21,4.57 -17.05,7.91 -26.23,9.89" /><path
         id="path36"
         style="fill:#231f20;fill-opacity:1;fill-rule:nonzero;stroke:none"
         d="m 7726.71,1605.82 v -133.89 h -15.18 v 133.89 h -36.37 v 13.5 h 87.92 v -13.5 h -36.37" /><path
         id="path38"
         style="fill:#231f20;fill-opacity:1;fill-rule:nonzero;stroke:none"
         d="m 7920.23,1471.93 -21.5,111.46 -46.89,-111.46 h -3.37 l -46.37,111.46 -22.02,-111.46 h -15.28 l 29.53,147.39 h 7.51 l 48.19,-119.33 48.44,119.33 h 8.03 l 28.76,-147.39 h -15.03" /></g></g></svg>