<svg width="256" height="52" viewBox="0 0 256 52" fill="none" xmlns="http://www.w3.org/2000/svg">
<path d="M109.935 13.92H115.631V40H109.935V13.92ZM136.641 40H130.977V28.64C130.977 27.7227 130.647 26.9333 129.985 26.272C129.324 25.5893 128.524 25.248 127.585 25.248C126.668 25.248 125.868 25.5893 125.185 26.272C124.524 26.9333 124.193 27.7227 124.193 28.64V40H118.497V28.64C118.497 26.1653 119.393 24.0427 121.185 22.272C122.977 20.48 125.111 19.584 127.585 19.584C130.081 19.584 132.215 20.4693 133.985 22.24C135.756 24.0107 136.641 26.144 136.641 28.64V40ZM138.932 21.312H140.628C140.628 19.264 141.342 17.5253 142.772 16.096C144.222 14.6453 145.961 13.92 147.988 13.92H148.532V19.584H147.988C147.518 19.584 147.113 19.7547 146.772 20.096C146.452 20.4373 146.292 20.8427 146.292 21.312H147.988V24.704H146.292V40H140.628V24.704H138.932V21.312ZM152.751 22.592C154.756 20.5867 157.167 19.584 159.983 19.584C162.799 19.584 165.199 20.5867 167.183 22.592C169.188 24.576 170.191 26.976 170.191 29.792C170.191 32.608 169.188 35.0187 167.183 37.024C165.199 39.008 162.799 40 159.983 40C157.167 40 154.756 39.008 152.751 37.024C150.767 35.0187 149.775 32.608 149.775 29.792C149.775 26.976 150.767 24.576 152.751 22.592ZM163.183 26.592C162.308 25.696 161.241 25.248 159.983 25.248C158.724 25.248 157.647 25.696 156.751 26.592C155.876 27.4667 155.439 28.5333 155.439 29.792C155.439 31.0293 155.876 32.096 156.751 32.992C157.647 33.8667 158.724 34.304 159.983 34.304C161.241 34.304 162.308 33.8667 163.183 32.992C164.079 32.096 164.527 31.0293 164.527 29.792C164.527 28.5333 164.079 27.4667 163.183 26.592ZM172.185 29.792C172.185 26.976 173.177 24.576 175.161 22.592C177.145 20.5867 179.545 19.584 182.361 19.584V25.248C181.102 25.248 180.035 25.696 179.161 26.592C178.286 27.4667 177.849 28.5333 177.849 29.792V40H172.185V29.792ZM201.87 19.584C203.961 19.584 205.753 20.3413 207.246 21.856C208.761 23.3493 209.518 25.1413 209.518 27.232V40H203.854V27.232C203.854 26.6987 203.652 26.24 203.246 25.856C202.862 25.4507 202.404 25.248 201.87 25.248C201.337 25.248 200.868 25.4507 200.462 25.856C200.078 26.24 199.886 26.6987 199.886 27.232V40H194.222V27.232C194.222 26.6987 194.02 26.24 193.614 25.856C193.23 25.4507 192.772 25.248 192.238 25.248C191.684 25.248 191.214 25.4507 190.83 25.856C190.446 26.24 190.254 26.6987 190.254 27.232V40H184.59V27.232C184.59 25.12 185.337 23.3173 186.83 21.824C188.324 20.3307 190.126 19.584 192.238 19.584C194.052 19.584 195.652 20.16 197.038 21.312C198.468 20.16 200.078 19.584 201.87 19.584ZM214.783 22.592C216.767 20.608 219.156 19.616 221.951 19.616C224.745 19.616 227.124 20.608 229.087 22.592C231.071 24.576 232.063 26.976 232.063 29.792C232.063 30.2613 232.031 30.72 231.967 31.168H217.631C217.929 32.1067 218.473 32.8747 219.263 33.472C220.052 34.048 220.948 34.336 221.951 34.336C222.697 34.336 223.391 34.1653 224.031 33.824H231.263C230.473 35.68 229.236 37.1733 227.551 38.304C225.865 39.4347 223.999 40 221.951 40C219.156 40 216.767 39.008 214.783 37.024C212.799 35.04 211.807 32.6293 211.807 29.792C211.807 26.976 212.799 24.576 214.783 22.592ZM217.919 27.776H225.951C225.567 27.0293 225.012 26.432 224.287 25.984C223.583 25.5147 222.804 25.28 221.951 25.28C221.076 25.28 220.276 25.5147 219.551 25.984C218.847 26.432 218.303 27.0293 217.919 27.776ZM251.371 37.024C249.387 39.008 246.987 40 244.171 40C241.355 40 238.944 39.008 236.939 37.024C234.955 35.0187 233.963 32.608 233.963 29.792C233.963 26.976 234.955 24.576 236.939 22.592C238.944 20.5867 241.355 19.584 244.171 19.584C245.75 19.584 247.264 19.936 248.715 20.64V13.92H254.379V29.792C254.379 32.608 253.376 35.0187 251.371 37.024ZM240.939 33.024C241.835 33.8987 242.912 34.336 244.171 34.336C245.43 34.336 246.496 33.8987 247.371 33.024C248.267 32.128 248.715 31.0507 248.715 29.792C248.715 28.5333 248.267 27.4667 247.371 26.592C246.496 25.696 245.43 25.248 244.171 25.248C242.912 25.248 241.835 25.696 240.939 26.592C240.064 27.4667 239.627 28.5333 239.627 29.792C239.627 31.0507 240.064 32.128 240.939 33.024Z" fill="#8E6086"/>
<path d="M27.375 26.5C27.375 30.1167 26.0917 33.2083 23.525 35.775C20.975 38.3417 17.8833 39.625 14.25 39.625C10.6333 39.625 7.54167 38.3417 4.975 35.775C2.40833 33.2083 1.125 30.1167 1.125 26.5C1.125 22.8667 2.40833 19.775 4.975 17.225C7.54167 14.6583 10.6333 13.375 14.25 13.375C17.8333 13.375 20.9667 14.675 23.65 17.275L19.9 21.05C18.3333 19.4333 16.45 18.625 14.25 18.625C12.0833 18.625 10.225 19.3917 8.675 20.925C7.14167 22.4583 6.375 24.3167 6.375 26.5C6.375 28.6667 7.14167 30.525 8.675 32.075C10.225 33.6083 12.0833 34.375 14.25 34.375C17.2833 34.375 19.575 33.0417 21.125 30.375H11.625V25.125H27.325C27.3583 25.825 27.375 26.2833 27.375 26.5ZM49.6406 39.125H44.3906V37.825C43.3406 39.025 41.5906 39.625 39.1406 39.625C36.4073 39.625 34.1406 38.6583 32.3406 36.725C30.5406 34.7917 29.6406 32.425 29.6406 29.625C29.6406 26.8417 30.5573 24.4833 32.3906 22.55C34.224 20.6 36.474 19.625 39.1406 19.625C41.5573 19.625 43.3073 20.2333 44.3906 21.45V20.125H49.6406V39.125ZM44.3906 29.625C44.3906 28.3083 43.924 27.1917 42.9906 26.275C42.074 25.3417 40.9573 24.875 39.6406 24.875C38.324 24.875 37.199 25.3417 36.2656 26.275C35.349 27.1917 34.8906 28.3083 34.8906 29.625C34.8906 30.9417 35.349 32.0667 36.2656 33C37.199 33.9167 38.324 34.375 39.6406 34.375C40.9573 34.375 42.074 33.9167 42.9906 33C43.924 32.0667 44.3906 30.9417 44.3906 29.625ZM82.3828 39.125H77.1328V28.175C77.1328 27.2583 76.8078 26.4833 76.1578 25.85C75.5078 25.2 74.7245 24.875 73.8078 24.875C72.9578 24.875 72.1828 25.275 71.4828 26.075C70.8328 26.8083 70.5078 27.5083 70.5078 28.175V39.125H65.2578V28.175C65.2578 27.2583 64.9328 26.4833 64.2828 25.85C63.6328 25.2 62.8495 24.875 61.9328 24.875C61.0161 24.875 60.2328 25.2 59.5828 25.85C58.9495 26.4833 58.6328 27.2583 58.6328 28.175V39.125H53.3828V20.125H58.6328V21.125C59.7161 20.125 61.0661 19.625 62.6828 19.625C64.7828 19.625 66.5661 20.375 68.0328 21.875C69.6661 20.375 71.5911 19.625 73.8078 19.625C76.1745 19.625 78.1911 20.4583 79.8578 22.125C81.5411 23.7917 82.3828 25.8083 82.3828 28.175V39.125ZM105.148 29.625C105.148 30.5417 105.032 31.4167 104.798 32.25H91.1734C92.1234 33.6667 93.4484 34.375 95.1484 34.375C96.4818 34.375 97.6318 33.8667 98.5984 32.85L102.348 36.6C100.298 38.6167 97.8984 39.625 95.1484 39.625C92.3818 39.625 90.0234 38.65 88.0734 36.7C86.1234 34.75 85.1484 32.3917 85.1484 29.625C85.1484 26.8583 86.1234 24.5 88.0734 22.55C90.0234 20.6 92.3818 19.625 95.1484 19.625C97.9151 19.625 100.273 20.6 102.223 22.55C104.173 24.5 105.148 26.8583 105.148 29.625ZM99.0984 27C98.1818 25.5833 96.8651 24.875 95.1484 24.875C93.4484 24.875 92.1234 25.5833 91.1734 27H99.0984Z" fill="#735772"/>
</svg>
