<?xml version="1.0" encoding="utf-8"?>
<!-- Generator: Adobe Illustrator 27.8.1, SVG Export Plug-In . SVG Version: 6.00 Build 0)  -->
<svg version="1.1" id="UE-Logotype-2023-Horizontal-Black"
	 xmlns="http://www.w3.org/2000/svg" xmlns:xlink="http://www.w3.org/1999/xlink" x="0px" y="0px" viewBox="0 0 3156.27 434.56"
	 style="enable-background:new 0 0 3156.27 434.56;" xml:space="preserve">
<style type="text/css">
	.st0{fill-rule:evenodd;clip-rule:evenodd;}
</style>
<g>
	<path class="st0" d="M694.41,218.28c0,30.3-16.64,49.92-50.17,49.92c-33.53,0-50.42-19.62-50.42-49.92v-87.92h-50.66v91.89
		c0,52.9,36.26,87.67,101.08,87.67c64.82,0,100.83-34.77,100.83-87.67v-91.89h-50.66V218.28z"/>
	<polygon class="st0" points="935.46,236.65 832.39,130.36 778.75,130.36 778.75,304.2 827.67,304.2 827.67,189.96 939.93,304.2 
		984.38,304.2 984.38,130.36 935.46,130.36 	"/>
	<path class="st0" d="M1221.41,189.71c0-39.74-34.52-59.36-78.98-59.36h-121.94V304.2h50.42v-54.89h51.16l45.95,54.89h58.86
		l-51.16-59.11C1203.03,237.15,1221.41,218.77,1221.41,189.71z M1138.71,212.56h-68.05v-43.71h68.05c18.13,0,31.29,4.97,31.29,21.85
		S1156.84,212.56,1138.71,212.56z"/>
	<polygon class="st0" points="1298.19,234.67 1407.72,234.67 1407.72,197.66 1298.19,197.66 1298.19,169.1 1431.06,169.1 
		1431.06,130.36 1248.27,130.36 1248.27,304.2 1433.79,304.2 1433.79,265.46 1298.19,265.46 	"/>
	<path class="st0" d="M1534.89,130.36l-89.9,173.85h53.15l16.39-33.28h95.37l16.39,33.28h53.89l-89.9-173.85H1534.89z
		 M1531.91,234.91l30.3-61.59l30.05,61.59H1531.91z"/>
	<polygon class="st0" points="1746.51,130.36 1695.84,130.36 1695.84,304.2 1863.48,304.2 1863.48,263.48 1746.51,263.48 	"/>
	<polygon class="st0" points="2002.8,234.67 2112.32,234.67 2112.32,197.66 2002.8,197.66 2002.8,169.1 2135.67,169.1 
		2135.67,130.36 1952.88,130.36 1952.88,304.2 2138.4,304.2 2138.4,265.46 2002.8,265.46 	"/>
	<polygon class="st0" points="2323,236.65 2219.93,130.36 2166.29,130.36 2166.29,304.2 2215.21,304.2 2215.21,189.96 
		2327.47,304.2 2371.92,304.2 2371.92,130.36 2323,130.36 	"/>
	<path class="st0" d="M2508.36,239.14h57.62v15.65c-12.17,11.18-29.06,15.4-50.42,15.4c-42.22,0-66.06-18.63-66.06-52.9
		c0-34.02,23.1-52.65,65.32-52.65c23.35,0,38.99,5.96,53.89,19.37l37-27.32c-18.13-16.89-49.17-32.04-92.14-32.04
		c-71.28,0-115.48,33.78-115.48,92.64c0,58.86,44.21,92.64,115.48,92.64c46.44,0,80.71-15.4,99.34-38.49v-67.8h-104.56V239.14z"/>
	<rect x="2642.76" y="130.36" class="st0" width="50.66" height="173.85"/>
	<polygon class="st0" points="2885.72,236.65 2782.66,130.36 2729.01,130.36 2729.01,304.2 2777.94,304.2 2777.94,189.96 
		2890.19,304.2 2934.65,304.2 2934.65,130.36 2885.72,130.36 	"/>
	<polygon class="st0" points="3020.67,265.46 3020.67,234.67 3130.2,234.67 3130.2,197.66 3020.67,197.66 3020.67,169.1 
		3153.54,169.1 3153.54,130.36 2970.75,130.36 2970.75,304.2 3156.27,304.2 3156.27,265.46 	"/>
	<path class="st0" d="M217.28,0C97.28,0,0,97.28,0,217.28s97.28,217.28,217.28,217.28s217.28-97.28,217.28-217.28S337.28,0,217.28,0
		z M272.86,338.08l-21.33-23.99l-36,36.19c-20.48-0.27-40.63-5.28-58.86-14.63s-34.05-22.79-46.22-39.27
		c3.82,1.19,7.77,1.94,11.77,2.22c5.9,0.11,12.28-2.06,12.28-11.96v-97.67c0.08-2.51-0.42-5.01-1.47-7.29
		c-1.05-2.28-2.62-4.28-4.59-5.85c-1.96-1.57-4.27-2.65-6.72-3.17c-2.46-0.52-5-0.45-7.43,0.18c-16.67,3.84-29.98,45.43-29.98,45.43
		c-0.19-19.2,3.81-38.22,11.71-55.72c7.9-17.5,19.52-33.07,34.05-45.63c19.12-16.54,42.54-27.34,67.53-31.15
		c-18.2,10.37-28.43,27.28-28.43,41.47c0,22.84,13.76,20.07,17.83,16.71v131.81c0.69,1.65,1.6,3.21,2.69,4.64
		c1.82,2.52,4.21,4.56,6.98,5.96c2.77,1.4,5.83,2.12,8.94,2.1c13.77,0,31.64-15.72,31.64-15.72V166.07
		c0-10.85-8.18-23.97-16.38-28.47c0,0,15.17-2.69,26.87,6.27c2.2-2.69,4.53-5.25,7-7.7c27.31-26.8,53.04-34.43,74.46-38.25
		c0,0-38.96,30.62-38.96,71.7c0,30.55,0.79,105.05,0.79,105.05c14.46,13.96,35.95-6.21,55.38-26.1
		C342.65,266.64,325.99,312.99,272.86,338.08z"/>
</g>
</svg>
